<mxfile host="app.diagrams.net" modified="2023-11-30T02:30:02.337Z" agent="Mozilla/5.0 (Macintosh; Intel Mac OS X 10_15_7) AppleWebKit/537.36 (KHTML, like Gecko) Chrome/119.0.0.0 Safari/537.36 Edg/119.0.0.0" etag="nyJ2f6NizMUFW7OvKBq7" version="22.1.5" type="github">
  <diagram id="C5RBs43oDa-KdzZeNtuy" name="Page-1">
    <mxGraphModel dx="1467" dy="800" grid="1" gridSize="10" guides="1" tooltips="1" connect="1" arrows="1" fold="1" page="1" pageScale="1" pageWidth="827" pageHeight="1169" math="0" shadow="0">
      <root>
        <mxCell id="WIyWlLk6GJQsqaUBKTNV-0" />
        <mxCell id="WIyWlLk6GJQsqaUBKTNV-1" parent="WIyWlLk6GJQsqaUBKTNV-0" />
        <mxCell id="-YLz3ERWtDPP97lk-IGL-8" style="edgeStyle=orthogonalEdgeStyle;rounded=0;orthogonalLoop=1;jettySize=auto;html=1;exitX=0.5;exitY=1;exitDx=0;exitDy=0;exitPerimeter=0;" edge="1" parent="WIyWlLk6GJQsqaUBKTNV-1" source="-YLz3ERWtDPP97lk-IGL-0" target="-YLz3ERWtDPP97lk-IGL-5">
          <mxGeometry relative="1" as="geometry" />
        </mxCell>
        <mxCell id="-YLz3ERWtDPP97lk-IGL-9" value="load task_config and table_splitor" style="edgeLabel;html=1;align=center;verticalAlign=middle;resizable=0;points=[];" vertex="1" connectable="0" parent="-YLz3ERWtDPP97lk-IGL-8">
          <mxGeometry x="-0.0194" y="2" relative="1" as="geometry">
            <mxPoint as="offset" />
          </mxGeometry>
        </mxCell>
        <mxCell id="-YLz3ERWtDPP97lk-IGL-0" value="task_meta" style="strokeWidth=2;html=1;shape=mxgraph.flowchart.database;whiteSpace=wrap;" vertex="1" parent="WIyWlLk6GJQsqaUBKTNV-1">
          <mxGeometry x="55" y="140" width="70" height="70" as="geometry" />
        </mxCell>
        <mxCell id="-YLz3ERWtDPP97lk-IGL-1" value="db to scan" style="strokeWidth=2;html=1;shape=mxgraph.flowchart.database;whiteSpace=wrap;" vertex="1" parent="WIyWlLk6GJQsqaUBKTNV-1">
          <mxGeometry x="640" y="310" width="70" height="70" as="geometry" />
        </mxCell>
        <mxCell id="-YLz3ERWtDPP97lk-IGL-2" value="task_result" style="strokeWidth=2;html=1;shape=mxgraph.flowchart.database;whiteSpace=wrap;" vertex="1" parent="WIyWlLk6GJQsqaUBKTNV-1">
          <mxGeometry x="430" y="80" width="70" height="70" as="geometry" />
        </mxCell>
        <mxCell id="-YLz3ERWtDPP97lk-IGL-4" style="edgeStyle=orthogonalEdgeStyle;rounded=0;orthogonalLoop=1;jettySize=auto;html=1;exitX=1;exitY=0.5;exitDx=0;exitDy=0;exitPerimeter=0;entryX=0;entryY=0.5;entryDx=0;entryDy=0;" edge="1" parent="WIyWlLk6GJQsqaUBKTNV-1" source="-YLz3ERWtDPP97lk-IGL-3" target="-YLz3ERWtDPP97lk-IGL-5">
          <mxGeometry relative="1" as="geometry">
            <mxPoint x="240" y="330" as="targetPoint" />
          </mxGeometry>
        </mxCell>
        <mxCell id="-YLz3ERWtDPP97lk-IGL-3" value="app.run()" style="strokeWidth=2;html=1;shape=mxgraph.flowchart.start_1;whiteSpace=wrap;" vertex="1" parent="WIyWlLk6GJQsqaUBKTNV-1">
          <mxGeometry x="40" y="330" width="100" height="60" as="geometry" />
        </mxCell>
        <mxCell id="-YLz3ERWtDPP97lk-IGL-5" value="task generator" style="swimlane;whiteSpace=wrap;html=1;" vertex="1" parent="WIyWlLk6GJQsqaUBKTNV-1">
          <mxGeometry x="260" y="260" width="200" height="200" as="geometry" />
        </mxCell>
        <mxCell id="-YLz3ERWtDPP97lk-IGL-10" value="" style="rounded=1;whiteSpace=wrap;html=1;" vertex="1" parent="-YLz3ERWtDPP97lk-IGL-5">
          <mxGeometry x="40" y="60" width="120" height="60" as="geometry" />
        </mxCell>
      </root>
    </mxGraphModel>
  </diagram>
</mxfile>
